{
    "accessors" : [
        {
            "bufferView" : 0,
            "componentType" : 5121,
            "count" : 240,
            "max" : [
                239
            ],
            "min" : [
                0
            ],
            "type" : "SCALAR"
        },
        {
            "bufferView" : 1,
            "componentType" : 5126,
            "count" : 240,
            "max" : [
                0.9510578513145447,
                0.9999999403953552,
                2.0
            ],
            "min" : [
                -0.9510578513145447,
                -0.9999999403953552,
                0.0
            ],
            "type" : "VEC3"
        },
        {
            "bufferView" : 2,
            "componentType" : 5126,
            "count" : 240,
            "max" : [
                0.9920773506164551,
                0.9435215592384338,
                0.9435237646102905
            ],
            "min" : [
                -0.9920774102210999,
                -0.9435215592384338,
                -0.9435237646102905
            ],
            "type" : "VEC3"
        },
        {
            "bufferView" : 3,
            "componentType" : 5121,
            "count" : 24,
            "max" : [
                9
            ],
            "min" : [
                0
            ],
            "type" : "SCALAR"
        },
        {
            "bufferView" : 4,
            "componentType" : 5126,
            "count" : 10,
            "max" : [
                0.9510578513145447,
                0.9999999403953552,
                0.0
            ],
            "min" : [
                -0.9510578513145447,
                -0.9999999403953552,
                0.0
            ],
            "type" : "VEC3"
        },
        {
            "bufferView" : 5,
            "componentType" : 5126,
            "count" : 10,
            "max" : [
                0.0,
                0.0,
                1.0
            ],
            "min" : [
                0.0,
                0.0,
                1.0
            ],
            "type" : "VEC3"
        }
    ],
    "asset" : {
        "generator" : "Khronos Blender glTF 2.0 exporter",
        "version" : "2.0"
    },
    "bufferViews" : [
        {
            "buffer" : 0,
            "byteLength" : 240,
            "byteOffset" : 0,
            "target" : 34963
        },
        {
            "buffer" : 0,
            "byteLength" : 2880,
            "byteOffset" : 240,
            "target" : 34962
        },
        {
            "buffer" : 0,
            "byteLength" : 2880,
            "byteOffset" : 3120,
            "target" : 34962
        },
        {
            "buffer" : 0,
            "byteLength" : 24,
            "byteOffset" : 6000,
            "target" : 34963
        },
        {
            "buffer" : 0,
            "byteLength" : 120,
            "byteOffset" : 6024,
            "target" : 34962
        },
        {
            "buffer" : 0,
            "byteLength" : 120,
            "byteOffset" : 6144,
            "target" : 34962
        }
    ],
    "buffers" : [
        {
            "byteLength" : 6264,
            "uri" : "icosphereSub2.bin"
        }
    ],
    "meshes" : [
        {
            "name" : "Icosphere",
            "primitives" : [
                {
                    "attributes" : {
                        "NORMAL" : 2,
                        "POSITION" : 1
                    },
                    "indices" : 0
                }
            ]
        },
        {
            "name" : "Collision",
            "primitives" : [
                {
                    "attributes" : {
                        "NORMAL" : 5,
                        "POSITION" : 4
                    },
                    "indices" : 3
                }
            ]
        }
    ],
    "nodes" : [
        {
            "mesh" : 1,
            "name" : "Collision"
        },
        {
            "children" : [
                0
            ],
            "mesh" : 0,
            "name" : "Icosphere"
        }
    ],
    "scene" : 0,
    "scenes" : [
        {
            "name" : "Scene",
            "nodes" : [
                1
            ]
        }
    ]
}
